HIERARCHY
ROOT Hips
{
	OFFSET -3.958830 18.904000 13.208200
	CHANNELS 6 Xposition Yposition Zposition Zrotation Yrotation Xrotation 
	JOINT LHipJoint
	{
		OFFSET 0.000000 0.000000 0.000000
		CHANNELS 3 Zrotation Yrotation Xrotation
		JOINT LeftUpLeg
		{
			OFFSET 1.800000 -1.400000 0.085000
			CHANNELS 3 Zrotation Yrotation Xrotation
			JOINT LeftLeg
			{
				OFFSET 2.215000 -6.000000 0.000000
				CHANNELS 3 Zrotation Yrotation Xrotation
				JOINT LeftFoot
				{
					OFFSET 2.500000 -6.900000 0.000000
					CHANNELS 3 Zrotation Yrotation Xrotation
					JOINT LeftToeBase
					{
						OFFSET 0.200000 -0.500000 1.950000
						CHANNELS 3 Zrotation Yrotation Xrotation
						End Site
						{
							OFFSET 0.000000 0.000000 0.000000
						}
					}
				}
			}
		}
	}
	JOINT RHipJoint
	{
		OFFSET 0.000000 0.000000 0.000000
		CHANNELS 3 Zrotation Yrotation Xrotation
		JOINT RightUpLeg
		{
			OFFSET -1.800000 -1.400000 0.085000
			CHANNELS 3 Zrotation Yrotation Xrotation
			JOINT RightLeg
			{
				OFFSET -2.215000 -6.000000 0.000000
				CHANNELS 3 Zrotation Yrotation Xrotation
				JOINT RightFoot
				{
					OFFSET -2.500000 -6.900000 0.000000
					CHANNELS 3 Zrotation Yrotation Xrotation
					JOINT RightToeBase
					{
						OFFSET -0.200000 -0.500000 1.950000
						CHANNELS 3 Zrotation Yrotation Xrotation
						End Site
						{
							OFFSET 0.000000 0.000000 0.000000
						}
					}
				}
			}
		}
	}
	JOINT LowerBack
	{
		OFFSET 0.000000 0.000000 0.000000
		CHANNELS 3 Zrotation Yrotation Xrotation
		JOINT Spine
		{
			OFFSET -0.087000 1.940000 -0.288900
			CHANNELS 3 Zrotation Yrotation Xrotation
			JOINT Spine1
			{
				OFFSET 0.000000 1.950000 0.060000
				CHANNELS 3 Zrotation Yrotation Xrotation
				JOINT Neck
				{
					OFFSET 0.000000 0.000000 0.000000
					CHANNELS 3 Zrotation Yrotation Xrotation
					JOINT Neck1
					{
						OFFSET 0.000000 1.600000 0.340000
						CHANNELS 3 Zrotation Yrotation Xrotation
						JOINT Head
						{
							OFFSET 0.000000 1.667000 -0.240000
							CHANNELS 3 Zrotation Yrotation Xrotation
							End Site
							{
								OFFSET 0.000000 0.000000 0.000000
							}
						}
					}
				}
				JOINT LeftShoulder
				{
					OFFSET 0.000000 0.000000 0.000000
					CHANNELS 3 Zrotation Yrotation Xrotation
					JOINT LeftArm
					{
						OFFSET 2.700000 1.550000 -0.730000
						CHANNELS 3 Zrotation Yrotation Xrotation
						JOINT LeftForeArm
						{
							OFFSET 5.450000 0.000000 0.000000
							CHANNELS 3 Zrotation Yrotation Xrotation
							JOINT LeftHand
							{
								OFFSET 3.450000 0.000000 0.000000
								CHANNELS 3 Zrotation Yrotation Xrotation
								JOINT LeftHandIndex1
								{
									OFFSET 0.750000 0.000000 0.000000
									CHANNELS 3 Zrotation Yrotation Xrotation
									End Site
									{
										OFFSET 0.000000 0.000000 0.000000
									}
								}
							}
						}
					}
				}
				JOINT RightShoulder
				{
					OFFSET 0.000000 0.000000 0.000000
					CHANNELS 3 Zrotation Yrotation Xrotation
					JOINT RightArm
					{
						OFFSET -2.700000 1.550000 -0.730000
						CHANNELS 3 Zrotation Yrotation Xrotation
						JOINT RightForeArm
						{
							OFFSET -5.450000 0.000000 0.000000
							CHANNELS 3 Zrotation Yrotation Xrotation
							JOINT RightHand
							{
								OFFSET -3.450000 0.000000 0.000000
								CHANNELS 3 Zrotation Yrotation Xrotation
								JOINT RightHandIndex1
								{
									OFFSET -0.750000 0.000000 0.000000
									CHANNELS 3 Zrotation Yrotation Xrotation
									End Site
									{
										OFFSET 0.000000 0.000000 0.000000
									}
								}
							}
						}
					}
				}
			}
		}
	}
}
MOTION
Frames: 7
Frame Time: 0.016667
-1.091570 17.814920 -0.879930 -4.099316 16.867803 1.762117 -15.011848 12.613139 2.368952 12.153128 -0.357900 -18.597369 1.075650 3.339500 6.406172 -0.228305 2.851091 3.619953 -0.109940 -0.150410 -0.236370 18.424961 -11.341508 3.226535 -1.632774 0.577920 -8.996546 11.191799 -4.364002 5.001856 -0.010609 -3.761841 3.146378 0.012980 0.413080 0.041470 -4.325062 0.715241 -7.245259 7.979729 2.601770 4.283765 -5.650768 3.504801 7.423233 4.842228 -2.633886 -9.188185 -4.880068 -0.903806 35.427007 -0.866420 -5.599870 4.264300 -21.197884 -9.368394 6.975168 -50.808185 4.758656 -5.098995 -17.265326 -10.737757 -0.359387 -3.915291 3.093825 -0.161290 0.246540 -0.291520 0.106490 11.959912 15.714227 2.361132 13.172903 25.311607 -2.285099 -17.567992 32.592520 -4.001482 2.357347 -1.402460 -0.126940 0.124670 0.132220 0.126670 
-1.095240 17.813440 -0.878760 -4.059809 17.072376 1.868150 -15.014327 12.588995 2.380582 12.066600 -0.406457 -18.595785 1.012953 3.302140 6.095578 -0.221411 2.837812 3.630450 -0.112350 -0.148910 -0.242770 18.426506 -11.328772 3.224856 -1.659560 0.603471 -9.071386 11.344608 -4.366879 4.951447 -0.008052 -3.770449 3.146325 0.013280 0.419670 0.040620 -4.324869 0.725986 -7.242245 7.935961 2.548221 4.189252 -5.622734 3.427275 7.406012 4.850893 -2.597019 -9.137026 -4.778494 -0.950462 35.194012 -0.865740 -5.625850 4.414560 -21.178253 -9.257316 6.937533 -51.183689 4.769631 -5.164120 -16.955830 -10.671720 -0.377004 -3.920938 3.094525 -0.171430 0.252050 -0.296920 0.110400 11.923345 15.559209 2.324289 13.228056 25.251139 -2.287127 -17.580834 32.764567 -4.029006 2.356667 -1.409548 -0.125250 0.124140 0.130200 0.132060 
-1.101230 17.810660 -0.877340 -4.013809 17.476141 2.036156 -15.017083 12.546322 2.401340 11.940552 -0.486104 -18.602376 0.951026 3.228504 5.548557 -0.224945 2.822207 3.640080 -0.111250 -0.144020 -0.245610 18.431002 -11.314509 3.215098 -1.674353 0.638439 -9.201986 11.470812 -4.373020 4.957701 -0.005328 -3.776862 3.142128 0.019630 0.425340 0.042560 -4.330716 0.756364 -7.231280 7.898438 2.477185 4.065307 -5.631859 3.314126 7.301219 4.872268 -2.476846 -8.922097 -4.488872 -1.085954 34.690936 -0.889610 -5.639640 4.281810 -21.305095 -8.876318 6.770728 -51.569782 4.855533 -5.262934 -16.615128 -10.446164 -0.425322 -3.933338 3.092587 -0.179560 0.258710 -0.301960 0.111430 11.993851 15.039077 2.152571 13.522392 25.087949 -2.343507 -17.658391 33.538588 -4.128679 2.343081 -1.417270 -0.125260 0.125080 0.131470 0.134080 
-1.111870 17.804200 -0.875270 -3.862781 17.882472 2.274597 -15.021991 12.506864 2.415227 11.741018 -0.569360 -18.721737 0.921755 3.166893 5.197488 -0.235030 2.808858 3.650003 -0.110630 -0.142030 -0.248420 18.433953 -11.303561 3.204443 -1.724593 0.669897 -9.354544 11.535535 -4.364023 4.908761 -0.001129 -3.780694 3.137983 0.027010 0.437030 0.047680 -4.330230 0.788596 -7.208414 7.694378 2.417300 3.937679 -5.674009 3.209273 7.153740 4.863216 -2.310618 -8.613189 -4.100828 -1.186270 34.110901 -0.862850 -5.614780 4.127280 -21.443824 -8.309764 6.559080 -51.758354 5.118761 -5.483121 -16.813990 -10.422531 -0.459358 -3.946953 3.092834 -0.186230 0.269080 -0.308210 0.114030 12.141041 14.284628 1.868204 14.046084 24.988714 -2.352122 -17.641112 34.501478 -4.223660 2.325619 -1.423879 -0.128740 0.128900 0.134430 0.136010 
-1.121400 17.797570 -0.871130 -3.739737 18.326957 2.446533 -15.027687 12.467896 2.428623 11.635819 -0.632072 -18.805133 0.849240 3.122706 4.850204 -0.240691 2.798448 3.655666 -0.104770 -0.136120 -0.244690 18.436344 -11.289111 3.199241 -1.697327 0.677630 -9.417870 11.605097 -4.344443 4.772301 0.000285 -3.783727 3.136552 0.034150 0.439320 0.049100 -4.327876 0.816806 -7.194387 7.512093 2.391443 3.849217 -5.631970 3.129883 6.956770 4.836377 -2.130136 -8.316816 -3.713006 -1.338121 33.677014 -0.819710 -5.639660 3.992170 -21.674545 -7.714612 6.341540 -51.855007 5.481705 -5.741536 -17.182416 -10.403052 -0.487326 -3.952014 3.096082 -0.191570 0.273830 -0.312890 0.114660 12.417828 13.499261 1.610738 14.511654 24.601537 -2.473059 -17.378484 35.853677 -4.260684 2.306918 -1.432468 -0.128820 0.128420 0.132870 0.134790 
-1.125950 17.796150 -0.871200 -3.676512 18.847517 2.491159 -15.030802 12.456325 2.453092 11.592614 -0.672327 -18.818656 0.718388 3.097675 4.512425 -0.247100 2.798744 3.652884 -0.102240 -0.137860 -0.240140 18.435106 -11.259458 3.204628 -1.685890 0.688525 -9.373464 11.805556 -4.347058 4.626599 -0.007917 -3.782726 3.132204 0.033530 0.431810 0.048130 -4.331430 0.771200 -7.221984 7.653809 2.266419 4.007520 -5.618924 3.006781 6.669147 4.732174 -2.237451 -8.150019 -3.950270 -1.492071 33.721048 -0.692300 -5.919930 3.618920 -22.094569 -7.341940 6.215403 -51.889293 5.983868 -6.034938 -17.608494 -10.434808 -0.521033 -3.941300 3.089442 -0.178220 0.263200 -0.306340 0.110700 12.997366 13.146717 1.481797 14.459282 23.905164 -2.848681 -16.936767 37.249046 -4.181541 2.293781 -1.423641 -0.130780 0.131920 0.136130 0.130980 
-1.127560 17.791920 -0.867720 -3.654724 19.174658 2.516008 -15.026543 12.441445 2.472194 11.698813 -0.669031 -18.845690 0.428632 3.130018 4.340982 -0.244176 2.809919 3.647283 -0.100010 -0.133050 -0.243510 18.440803 -11.242275 3.207713 -1.664175 0.669066 -9.257372 11.888182 -4.337351 4.484579 -0.014475 -3.782665 3.135374 0.035210 0.428750 0.039860 -4.352331 0.753800 -7.244197 7.912983 2.216446 4.123226 -5.569323 2.958630 6.417328 4.587924 -2.460628 -8.012464 -4.373735 -1.510111 33.775794 -0.389850 -6.209730 3.316390 -22.327482 -6.935987 6.088922 -52.029457 6.405842 -6.272174 -17.833778 -10.389900 -0.549601 -3.929879 3.078982 -0.170960 0.252990 -0.302860 0.112490 13.466080 12.874431 1.384526 14.410576 23.360324 -3.125213 -16.558859 38.171320 -4.093929 2.288193 -1.415804 -0.132270 0.140340 0.135670 0.133000 
